<?xml version="1.0" encoding="utf-8"?>
<!-- Generator: Adobe Adobe Illustrator 24.2.0, SVG Export Plug-In . SVG Version: 6.00 Build 0)  -->
<svg version="1.1" id="Layer_1" xmlns="http://www.w3.org/2000/svg" xmlns:xlink="http://www.w3.org/1999/xlink" x="0px" y="0px"
	 width="1920px" height="1080px" viewBox="0 0 1920 1080" style="enable-background:new 0 0 1920 1080;" xml:space="preserve">
<style type="text/css">
	.st0{fill:#FFFFFF;}
	.st1{fill:url(#SVGID_1_);}
	.st2{fill:#FFFFFF;stroke:#000000;stroke-miterlimit:10;}
	.st3{fill:url(#SVGID_2_);}
	.st4{fill:#FFFFFF;stroke:#FFFFFF;stroke-width:5;stroke-miterlimit:10;}
	.st5{fill:#FFFFFF;stroke:#FFFFFF;stroke-width:3.6667;stroke-miterlimit:10;}
	.st6{fill:#FFFFFF;stroke:#FFFFFF;stroke-width:10.6495;stroke-miterlimit:10;}
	.st7{fill:#F0F0F0;}
	.st8{fill:#2861A8;stroke:#2861A8;stroke-width:10.6495;stroke-miterlimit:10;}
	.st9{fill:#2861A8;stroke:#2861A8;stroke-width:3.6667;stroke-miterlimit:10;}
	.st10{fill:#10305F;stroke:#FFFFFF;stroke-width:0.8353;stroke-miterlimit:10;}
	.st11{fill:#2861A8;stroke:#FFFFFF;stroke-width:0.8353;stroke-miterlimit:10;}
	.st12{fill:#2861A8;stroke:#2861A8;stroke-width:4;stroke-miterlimit:10;}
	.st13{fill:none;}
	.st14{fill:#2861A8;stroke:#2861A8;stroke-width:8.6061;stroke-miterlimit:10;}
</style>
<path class="st12" d="M967.06,370.14V648.6h-30.89V370.14H967.06z"/>
<path class="st12" d="M1107.33,399.36V648.6h-30.89V399.36h-67.63v-29.22h166.16v29.22H1107.33z"/>
<path class="st12" d="M1266.81,370.14c15.45,0,43.42,1.25,63.88,17.53c8.77,6.68,25.05,23.8,25.05,57.61
	c0,13.78-2.92,37.99-27.55,54.69c38.83,9.6,53.02,43.42,53.02,70.14s-13.36,48.43-28.39,60.12c-22.13,17.53-47.59,18.37-66.8,18.37
	h-69.3V370.14H1266.81z M1247.6,492.46h23.38c16.28,0,54.69-3.34,54.69-46.34c0-45.92-45.09-46.76-53.86-46.76h-24.21V492.46z
	 M1247.6,619.38h35.49c17.95,0,35.49-1.25,48.85-11.69c10.85-7.93,18.37-21.71,18.37-38.41c0-22.13-12.94-35.07-23.8-40.91
	c-10.44-5.84-25.05-8.35-47.17-8.35h-31.73V619.38z"/>
<path class="st12" d="M1591.61,570.11h-118.56l-33.4,78.49h-34.23l128.17-291.82L1658.4,648.6h-34.23L1591.61,570.11z
	 M1579.5,540.89l-46.76-111.47l-47.59,111.47H1579.5z"/>
<rect x="914.61" y="526.84" class="st13" width="0" height="0"/>
<g>
	<path class="st14" d="M579.46,631.86c-13.09-3.82-24.35-9.71-31.26-23.15c-8.86-17.23-6.48-38.82,5.66-53.05
		c3.76-4.41,3.89-4.55-0.02-8.78c-11.22-12.16-14.9-35.94-6.24-50.91c2.38-4.12,5.01-8.09,7.78-11.91c1.58-2.18,1.63-3.77-0.1-5.75
		c-11.15-12.74-13.43-28.38-9.93-44.71c2.33-10.86,9.05-19.39,17.93-25.2c6.23-4.08,12.99-6,20.32-6.21
		c4.76-0.14,9.52-1.42,14.23-2.4c13.49-2.82,26.97-5.66,40.43-8.68c12.01-2.69,23.95-5.76,35.96-8.38
		c8.58-1.87,17.27-3.17,25.87-4.93c8.8-1.8,17.51-4.24,26.36-5.68c6.23-1.01,12.62-1.01,18.94-1.13
		c14.02-0.28,27.88,1.41,41.68,4.18c7.67,1.54,15.51,1.97,23.25,3.07c4.91,0.7,9.78,1.81,14.68,2.58
		c8.88,1.41,17.77,2.68,26.65,4.08c4.91,0.77,9.81,1.69,15.48,2.68c1.4,7.13,2.93,14.87,4.44,22.5c-13.62,3.29-26.5,6.53-39.44,9.5
		c-10.85,2.5-21.79,4.54-32.63,7.05c-10.01,2.32-19.94,5.07-29.93,7.52c-8.05,1.98-16.16,3.74-24.2,5.75
		c-7.58,1.9-15.08,4.18-22.68,5.97c-8.08,1.91-16.18,3.96-24.38,5.02c-9.21,1.2-18.57,2.15-27.8,1.73
		c-7.65-0.34-15.39-2.16-22.78-4.51c-11.81-3.76-23.39-8.44-35.02-12.87c-6.38-2.42-12.56-5.57-19.04-7.58
		c-10.88-3.37-19.37-2.67-25.13,7.78c-6.97,12.64-2.74,26.12,9.25,31.07c16.84,6.94,34.24,12.21,51.36,18.31
		c9.11,3.25,18.08,7.01,27.25,10.08c11.21,3.75,22.21,9.43,34.45,6.47c11.7-2.83,23.39-5.73,35.06-8.69
		c16.38-4.14,32.75-8.35,49.12-12.54c16.55-4.24,33.09-8.53,49.64-12.75c6.98-1.78,14.01-3.29,20.97-5.17
		c10.48-2.83,14.89,1.13,17.43,12.76c0.42,1.92,0.26,3.99,0.39,6.31c-6.69,1.8-13.1,3.6-19.55,5.24
		c-16.54,4.22-33.09,8.36-49.63,12.55c-12.82,3.24-25.64,6.48-38.45,9.76c-13.78,3.52-27.54,7.14-41.34,10.6
		c-8.28,2.08-16.57,4.07-24.91,5.86c-9.66,2.08-18.81-0.77-27.9-4.01c-15.83-5.64-31.68-11.21-47.51-16.83
		c-7.29-2.59-14.51-5.46-21.87-7.79c-7.62-2.41-15.14-2.81-21.7,3.6c-9.65,9.44-8.43,27.47,3.05,33.94
		c7.63,4.3,16.05,6.94,24.24,9.93c14.06,5.14,28.21,9.95,42.32,14.93c8.87,3.13,17.75,6.28,26.59,9.5
		c11.02,4.02,21.92,2.94,33.02-0.01c22.97-6.1,46.05-11.67,69.06-17.56c16.06-4.11,32.07-8.4,48.12-12.56
		c9.24-2.39,18.47-4.81,27.75-6.98c10.51-2.46,14.78,0.83,16.93,12.66c0.36,1.96,0.67,3.92,1.1,6.46c-6.23,1.7-12.14,3.41-18.1,4.92
		c-13.14,3.34-26.3,6.54-39.44,9.88c-16.07,4.08-32.11,8.27-48.17,12.36c-13.31,3.39-26.63,6.71-39.94,10.07
		c-9.08,2.29-18.13,4.72-27.23,6.88c-10.53,2.5-20.42-0.83-30.3-4.38c-17.87-6.43-35.79-12.7-53.7-19.02
		c-5.38-1.9-10.81-3.66-16.18-5.58c-13.03-4.66-27.92,6.88-25.06,24.66c1.34,8.32,6.19,13.54,12.94,16.19
		c12.21,4.8,24.61,9.02,36.95,13.39c17.56,6.23,35.18,12.26,52.71,18.61c9.18,3.32,18.47,3.37,27.66,1.11
		c21.77-5.36,43.42-11.29,65.15-16.81c24.82-6.3,49.68-12.38,74.52-18.58c3.74-0.93,7.47-1.91,11.15-3.07
		c7.81-2.45,13.47,1.05,15.43,9.83c0.6,2.67,0.86,5.43,1.43,9.18c-4.91,1.39-9.79,2.9-14.72,4.16c-13.31,3.4-26.65,6.66-39.97,10.03
		c-13.3,3.36-26.6,6.71-39.87,10.21c-9.82,2.59-19.57,5.54-29.39,8.11c-9.67,2.53-19.38,4.91-29.11,7.13
		c-8.09,1.84-16.23,3.4-24.36,5.01c-7.79,1.54-15.2-0.84-22.5-3.25c-9.78-3.24-19.42-6.97-29.13-10.48
		c-11.62-4.2-23.24-8.39-34.88-12.55C592.39,636.39,586.1,634.25,579.46,631.86z"/>
</g>
<g>
	<path class="st12" d="M491.51,431.55c-8.77-8.77-22.13-19.2-36.32-25.88c-14.61-6.68-31.73-10.85-48.01-10.85
		c-64.29,0-111.88,51.77-111.88,116.06c0,75.56,61.37,113.55,112.3,113.55c18.79,0,37.16-5.43,51.77-12.94
		c15.87-7.93,27.14-18.37,32.15-23.38v38.41c-30.89,22.13-63.04,27.14-83.91,27.14c-82.66,0-144.03-62.62-144.03-143.2
		c0-83.08,62.2-144.87,145.7-144.87c16.7,0,48.85,2.09,82.24,27.55V431.55z"/>
</g>
</svg>
